<?xml version="1.0"?>
<svg width="257" height="261" xmlns="http://www.w3.org/2000/svg" xmlns:svg="http://www.w3.org/2000/svg" xmlns:xlink="http://www.w3.org/1999/xlink">
 <g>
  <title>Layer 1</title>
  <g id="flat">
   <ellipse id="svg_1" ry="126.7" rx="125" cy="129.2" cx="127.9" fill="#2ba8de" opacity="0.9"/>
   <g id="svg_2" opacity="0.99">
    <defs>
     <ellipse ry="126.7" rx="125" cy="129.2" cx="127.9" opacity="0.99" id="SVGID_1_"/>
    </defs>
    <clipPath id="SVGID_2_">
     <use id="svg_3" xlink:href="#SVGID_1_"/>
    </clipPath>
    <g id="svg_4" clip-path="url(#SVGID_2_)">
     <path id="svg_5" d="m148.7,100.7c-5.3,-1.3 -15.7,-3.9 -16.5,-4.7c-1,-1.1 -5.2,-0.5 -7.9,1.6c-2.7,2.1 -7.3,2.6 -7.1,3.8c0.2,1.2 0.2,-1.5 -4.2,-1.1c-4.4,0.3 -9,1.9 -10.7,2.5c-1.7,0.5 -5.1,1.3 -8.3,0.5c-2.2,-0.5 -8.8,-2.6 -12.7,-3.8c-1.7,-0.5 -3.6,0.4 -4.2,2.1l-15.3,40.7c-0.6,1.7 0.2,3.6 1.8,4.2l16.7,6.1c1.6,0.6 1.9,1.2 1,2.1c-0.5,0.5 -0.9,1.1 -0.9,2c0,2.5 3.9,4.4 4.9,4.8s3.6,0.5 4.2,0c0.7,-0.5 -2,2.3 0.7,6c2.7,3.7 4.2,4.4 9.1,3.7c1.8,-0.2 -0.8,0.5 2.3,3.7c1.2,1.3 3.8,2.6 5.6,2.5c2.5,0 2.6,-1.3 3,-0.5c0.5,1.1 1,3.5 5.9,4.8c4.9,1.2 4.1,-2.3 4.9,-1.8c0.7,0.4 0.1,2.4 2.9,3.1c1.7,0.4 4.7,0.2 6.2,-0.8c0.2,-0.2 0.4,-0.3 0.5,-0.5c1.1,-1.4 2.7,-2.8 4.3,-2.1c0.5,0.2 1.1,0.2 2,-0.2c1.6,-0.8 3.7,-2.9 4.4,-4.5c1.2,-2.8 -0.7,-3.1 0.8,-3.1c1.6,0 0.9,2.5 5.8,1.1c1.7,-0.5 3.9,-2.2 4.8,-3.8c0.9,-1.8 1,-3 0.9,-3.8c-0.3,-1.8 2.5,-1.6 4.2,-2c2.3,-0.5 2.7,-0.8 3.2,-1.6c0.7,-1.1 2.4,-3.3 1.2,-5.8c-0.9,-1.9 10.5,-5.8 16.1,-7.6c1.7,-0.5 2.5,-2.3 1.9,-4l-15.9,-43.2c-0.6,-1.7 -2.5,-2.7 -4.2,-2.2l-5.5,1.5c-1.4,0.7 -4.2,0.7 -5.9,0.3z" fill="#F7CB98"/>
     <g id="svg_6" opacity="0.19">
      <g id="svg_7">
       <path id="svg_8" d="m109.6,113.6l-0.3,-0.1c1.9,-4.9 8.2,-2.4 8.3,-2.4l-0.1,0.3c0,-0.1 -6.1,-2.5 -7.9,2.2z" fill="#686868"/>
      </g>
      <g id="svg_9">
       <path id="svg_10" d="m145.7,132.3l-0.1,-0.3c2.7,-1.2 4,-1.7 4,-1.7c5.4,-1.3 6,-3.3 6,-3.3l0.3,0.1c0,0.1 -0.5,2.2 -6.1,3.5l0,0c-0.2,0 -1.4,0.5 -4.1,1.7z" fill="#686868"/>
      </g>
      <g id="svg_11">
       <path id="svg_12" d="m147.1,132.6l-0.3,-0.1c1,-5 3.2,-8 3.2,-8l0.2,0.2c0,0 -2.1,2.9 -3.1,7.9z" fill="#686868"/>
      </g>
      <g id="svg_13">
       <path id="svg_14" d="m121,180.2c-2.2,-7.2 -7.5,-7 -7.5,-7l-0.2,0l0,-0.2c0.3,-2.3 -0.3,-3 -0.3,-3l0,0c-2.1,-5.6 -10,-4.8 -10.1,-4.8l-0.1,0l-0.1,-0.1c-3.7,-6.4 -11.5,-5.6 -11.5,-5.6l-0.1,0l0,-0.1c0,-0.1 -1.2,-5.5 -9.1,-5.5c-0.1,0 -0.2,0 -0.2,0l0,-0.3c0.1,0 0.1,0 0.2,0c7.4,0 9.1,4.8 9.3,5.6c1,-0.1 8.1,-0.4 11.6,5.6c0.9,-0.1 8.2,-0.6 10.2,4.9c0.1,0.1 0.6,1 0.4,3.1c0.9,0 5.6,0.6 7.6,7.2l-0.1,0.2z" fill="#666666"/>
      </g>
      <g id="svg_15">
       <path id="svg_16" d="m91.3,159.4l-1.5,2l1.5,-2z" fill="#E6BB57"/>
       <polygon id="svg_17" points="89.9,161.5 89.6,161.4 91.2,159.3 91.4,159.5      " fill="#666666"/>
      </g>
      <g id="svg_18">
       <path id="svg_19" d="m100.1,171.1l-0.1,-0.2c2.9,-2 2.8,-5.8 2.8,-5.8l0.3,0c0,0 0.1,3.9 -3,6z" fill="#636363"/>
      </g>
      <g id="svg_20">
       <path id="svg_21" d="m110.1,177l-0.1,-0.3c1.8,-1 3.4,-3.8 3.4,-3.8l0.2,0.1c0,0.2 -1.6,2.9 -3.5,4z" fill="#636363"/>
      </g>
      <g id="svg_22">
       <path id="svg_23" d="m122.5,178.6l-0.2,-0.2c0,-0.1 1.3,-1.6 2.5,-1.9l0.1,0.3c-1.2,0.3 -2.4,1.8 -2.4,1.8z" fill="#636363"/>
      </g>
      <g id="svg_24">
       <path id="svg_25" d="m123.2,179.6l0,-0.3c0,0 1.5,-0.1 3.4,-2.1l0.2,0.2c-2,2.1 -3.5,2.2 -3.6,2.2z" fill="#636363"/>
      </g>
      <g id="svg_26">
       <path id="svg_27" d="m124.8,180.9l-0.2,-0.2c0,0 1.8,-1.9 2.6,-2.7l0.2,0.2c-0.8,0.8 -2.6,2.7 -2.6,2.7z" fill="#636363"/>
      </g>
      <g id="svg_28">
       <path id="svg_29" d="m153.6,163.8c-4.2,-9.1 -8.8,-12.9 -8.8,-12.9l0.2,-0.2c0.1,0.1 4.6,3.9 8.9,13l-0.3,0.1z" fill="#636363"/>
      </g>
      <g id="svg_30">
       <path id="svg_31" d="m142,171.9l-0.3,0c0.4,-3 -8,-11.6 -8.1,-11.7l0.2,-0.2c0.4,0.3 8.6,8.7 8.2,11.9z" fill="#636363"/>
      </g>
      <g id="svg_32">
       <path id="svg_33" d="m133,180c-0.8,-0.7 -9.5,-11 -9.9,-11.4l0.2,-0.2c0.1,0.1 9,10.7 9.8,11.4l-0.1,0.2z" fill="#636363"/>
      </g>
      <g id="svg_34">
       <path id="svg_35" d="m132.3,173.9c0,-0.1 -0.2,-2.4 3.4,-4.1l0.1,0.3c-3.4,1.6 -3.2,3.8 -3.2,3.8l-0.3,0z" fill="#636363"/>
      </g>
      <g id="svg_36">
       <path id="svg_37" d="m133.6,173.3l-0.1,-0.3c0,0 2.5,-0.9 3.1,-3l0.3,0.1c-0.7,2.3 -3.2,3.2 -3.3,3.2z" fill="#636363"/>
      </g>
      <g id="svg_38">
       <path id="svg_39" d="m141.4,162.7c-0.6,0 -1,-0.1 -1,-0.1l0.1,-0.3c0,0 2,0.6 3.2,-1c0,0 1.2,-2.1 1.7,-4.1c0,0 0.2,-0.7 0.7,-0.8c0.3,-0.1 0.6,0 0.9,0.4l-0.2,0.2c-0.3,-0.3 -0.5,-0.4 -0.7,-0.3c-0.3,0.1 -0.5,0.6 -0.5,0.6c-0.5,2 -1.7,4.2 -1.7,4.2c-0.8,1 -1.8,1.2 -2.5,1.2z" fill="#636363"/>
      </g>
      <g id="svg_40">
       <path id="svg_41" d="m141.6,164l-0.1,-0.3c0,0 2.7,-0.9 5.4,-3.1l0.2,0.2c-2.8,2.3 -5.5,3.2 -5.5,3.2z" fill="#636363"/>
      </g>
      <g id="svg_42">
       <path id="svg_43" d="m142.1,165.5l-0.1,-0.2c2.4,-1.6 4.9,-3.5 4.9,-3.9l0.3,0c0,0.5 -3.6,3 -5.1,4.1z" fill="#636363"/>
      </g>
      <g id="svg_44">
       <path id="svg_45" d="m153,153.7l-0.1,-0.3c0,0 2,-1 2.9,-2.4c0,-0.3 -0.1,-1.3 1.1,-2l0.1,0.2c-1.2,0.7 -0.9,1.7 -0.9,1.8l0,0.1l0,0.1c-1,1.5 -3,2.5 -3.1,2.5z" fill="#636363"/>
      </g>
      <g id="svg_46">
       <path id="svg_47" d="m152.5,153.8l-0.2,-0.2c0,0 2.1,-2.1 1.3,-6.2l0.3,-0.1c0.8,4.3 -1.4,6.5 -1.4,6.5z" fill="#636363"/>
      </g>
      <g id="svg_48">
       <path id="svg_49" d="m150.3,151.6l-0.1,-0.3c0,0 2.4,-1 4.5,-3.4l0.2,0.2c-2.1,2.4 -4.6,3.5 -4.6,3.5z" fill="#636363"/>
      </g>
      <g id="svg_50">
       <path id="svg_51" d="m117.6,106.4l-7.1,0l7.1,0z" fill="#F0CE78"/>
       <rect id="svg_52" height="0.3" width="7.1" fill="#686868" y="106.2" x="110.5"/>
      </g>
      <g id="svg_53">
       <path id="svg_54" d="m109.9,108.8l-0.2,-0.2c0.3,-0.2 6.1,-4.6 8.8,-4.6c0,0 0.1,0 0.1,0l0,0.3c0,0 -0.1,0 -0.1,0c-2.5,-0.1 -8.5,4.5 -8.6,4.5z" fill="#686868"/>
      </g>
      <g id="svg_55">
       <path id="svg_56" d="m111.1,114.8c0,0 -0.6,-0.8 -0.4,-1.8c0.4,-1.5 2.2,-2.8 5.4,-3.8l0.1,0.3c-3.9,1.3 -5,2.7 -5.2,3.6c-0.2,0.9 0.3,1.6 0.3,1.6l-0.2,0.1z" fill="#686868"/>
      </g>
      <g id="svg_57">
       <path id="svg_58" d="m95.9,104c0,0 -3.7,2.7 -4.2,3l4.2,-3z" fill="#E6BB57"/>
       <path id="svg_59" d="m91.8,107l-0.1,-0.3c0.3,-0.2 2.9,-2 4.1,-2.9l0.2,0.2c-0.2,0.2 -3.8,2.8 -4.2,3z" fill="#5B5B5B"/>
      </g>
      <g id="svg_60">
       <path id="svg_61" d="m90.5,110.4l-0.1,-0.3c5,-2.2 5.5,-6 5.5,-6l0,-0.4l0.2,0.3c0,0 0.7,1.1 0.7,4.7l-0.3,0c0,-2.4 -0.3,-3.6 -0.5,-4.2c-0.2,1.1 -1.4,4 -5.5,5.9z" fill="#5B5B5B"/>
      </g>
      <g id="svg_62">
       <path id="svg_63" d="m126.5,113.8c-0.1,-5.6 -4.9,-8.2 -4.9,-8.2l0.1,-0.3c0,0 4.9,2.7 5,8.5l-0.2,0z" fill="#5B5B5B"/>
      </g>
      <g id="svg_64">
       <path id="svg_65" d="m126.8,105.9l1.2,4.3l-1.2,-4.3z" fill="#E6BB57"/>
       <polygon id="svg_66" points="127.9,110.3 126.7,105.9 127,105.8 128.1,110.2      " fill="#5B5B5B"/>
      </g>
      <g id="svg_67">
       <path id="svg_68" d="m129.9,106.9c0,0 -1.6,7.8 -2.3,7.8l2.3,-7.8z" fill="#E6BB57"/>
       <path id="svg_69" d="m127.7,114.8l0,-0.3c0.4,-0.2 1.4,-4.1 2.2,-7.7l0.3,0.1c-0.6,2.4 -1.9,7.9 -2.5,7.9z" fill="#5B5B5B"/>
      </g>
      <g id="svg_70">
       <path id="svg_71" d="m131.8,108.2l-0.1,7.7l0.1,-7.7z" fill="#E6BB57"/>
       <polygon id="svg_72" points="131.9,115.9 131.6,115.9 131.7,108.2 132,108.2      " fill="#5B5B5B"/>
      </g>
      <g id="svg_73">
       <path id="svg_74" d="m133.1,109.5c0,0 -0.4,7.5 -1.2,7.3l1.2,-7.3z" fill="#E6BB57"/>
       <path id="svg_75" d="m131.9,117c0,0 -0.1,0 0,0l0,-0.3c0.4,-0.1 0.8,-3.3 1,-7.2l0.3,0c0,0.7 -0.4,6.8 -1.1,7.4c-0.1,0.1 -0.2,0.1 -0.2,0.1z" fill="#5B5B5B"/>
      </g>
      <g id="svg_76">
       <path id="svg_77" d="m134.7,107.1c0,0 -0.5,4.9 -1.7,8.7l1.7,-8.7z" fill="#E6BB57"/>
       <path id="svg_78" d="m133.2,115.9l-0.3,-0.1c1.1,-3.8 1.6,-8.6 1.6,-8.7l0.3,0c0,0.1 -0.5,5 -1.6,8.8z" fill="#5B5B5B"/>
      </g>
      <g id="svg_79">
       <path id="svg_80" d="m162,154.9c0,-0.1 -3.2,-8.9 -5.6,-10.6c-0.1,-0.1 -5.6,-5.5 -6.5,-6.3c-0.2,-0.2 -0.3,-0.3 -0.2,-0.4l0,0l-13.7,-12.8c-0.1,0 -1.8,-1.2 -3.3,-3.8c-1.2,-1.7 -3.2,-4.6 -3.5,-4.7l0,0c-0.1,-0.1 -1.5,-1.4 -2.8,-0.1c0,0 -1.1,1.3 -2.8,4.8c-0.1,0.1 -1.3,2.5 -3.3,3.9c-0.1,0.1 -2.3,1.5 -3.9,1.8c0,0 -5.8,1.9 -7.8,-3.1c0,-0.1 -1.1,-2 -0.3,-5.5c0,0 0.2,-1.5 0.1,-2.6c0,-0.1 -0.1,-2.3 0.2,-3.8c0,0 0.1,-3.1 0.6,-5.1c0,-0.1 0.9,-2.9 7.3,-5.7l0.1,0.3c-6.3,2.8 -7.2,5.5 -7.2,5.5c-0.5,2 -0.6,5 -0.6,5.1c-0.3,1.5 -0.2,3.7 -0.2,3.8c0,1.1 -0.1,2.6 -0.1,2.6c-0.7,3.5 0.3,5.3 0.3,5.4c1.9,4.7 7.3,3 7.5,2.9c1.5,-0.3 3.8,-1.8 3.8,-1.8c1.9,-1.4 3.2,-3.8 3.2,-3.8c1.7,-3.5 2.8,-4.8 2.8,-4.8c1.4,-1.4 3,-0.1 3.2,0c0.5,0.3 3.1,4.1 3.6,4.8c1.5,2.5 3.2,3.7 3.3,3.7l14.6,13.8l-0.1,0.1c1.7,1.6 5.6,5.5 5.8,5.7c2.4,1.8 5.5,10.3 5.7,10.7l-0.2,0z" fill="#5B5B5B"/>
      </g>
     </g>
     <path id="svg_81" d="m65.2,146.4c-1.5,3.3 -10.8,1.8 -20.7,-3.3l-141,-72.6c-9.9,-5.1 -16.7,-11.8 -15.1,-15.1l21.6,-46c1.5,-3.3 10.8,-1.8 20.7,3.3l141,72.6c9.9,5.1 16.7,11.8 15.1,15.1l-21.6,46z" fill="#EF675B"/>
     <g id="svg_82">
      <path id="svg_83" d="m179.8,146.5c1.6,3.4 5.6,4.7 9.1,2.9l89.3,-46.8c3.4,-1.7 86.4,-43.5 84.8,-46.9l-25.8,-35.9c-1.6,-3.4 -25.8,-8.9 -29.3,-7.2l-147,77.3c-3.4,1.8 -4.9,5.9 -3.3,9.3l22.2,47.3z" fill="#FDC00F"/>
     </g>
     <g id="svg_84">
      <path id="svg_85" d="m117,120.7c-0.1,1.5 -2,2.7 -4.1,2.5c-2.1,-0.2 -3.8,-1.6 -3.6,-3.2c0.1,-1.6 1.9,-3.3 4,-3.1c2.2,0.1 3.9,2.2 3.7,3.8z" fill="#FFFFFF" opacity="0.65"/>
      <path id="svg_86" d="m83.3,155.8c0.3,-0.9 1.9,-1.1 3.6,-0.4c1.7,0.7 2.9,2 2.6,3c-0.3,0.9 -1.9,1.6 -3.6,0.9c-1.7,-0.8 -2.9,-2.6 -2.6,-3.5z" fill="#FFFFFF" opacity="0.65"/>
      <path id="svg_87" d="m92.8,162c0.3,-1.2 2.4,-1.4 4.5,-0.5c2.2,0.9 3.6,2.5 3.3,3.7c-0.3,1.2 -2.3,2 -4.5,1.1c-2.1,-1 -3.6,-3.2 -3.3,-4.3z" fill="#FFFFFF" opacity="0.65"/>
      <path id="svg_88" d="m104.2,167.4c0.3,-1.2 2.3,-1.4 4.5,-0.5c2.2,0.9 3.6,2.5 3.3,3.7c-0.3,1.2 -2.3,2 -4.5,1.1c-2.2,-0.9 -3.6,-3.1 -3.3,-4.3z" fill="#FFFFFF" opacity="0.65"/>
      <path id="svg_89" d="m113.1,175.3c0.3,-0.9 1.9,-1 3.6,-0.3c1.7,0.8 2.8,2.1 2.5,3.1c-0.3,0.9 -1.9,1.5 -3.6,0.7c-1.7,-0.8 -2.8,-2.6 -2.5,-3.5z" fill="#FFFFFF" opacity="0.65"/>
     </g>
    </g>
   </g>
  </g>
 </g>
</svg>