<svg version="1.1" xmlns="http://www.w3.org/2000/svg" x="0" y="0" viewBox="0 0 40 38" xml:space="preserve"><path fill="#8FCAA9" d="M24 38h-8c-.6 0-1-.4-1-1V25c0-.6.4-1 1-1h8c.6 0 1 .4 1 1v12c0 .6-.4 1-1 1zm-7-2h6V26h-6v10z"/><g><path fill="#979CA1" d="M36.1 23c-.3 0-.5-.1-.7-.3L20 7.4 4.6 22.7c-.4.4-1 .4-1.4 0L.3 19.8c-.2-.2-.3-.4-.3-.7s.1-.5.3-.7L17.8.9C19-.3 21-.3 22.1.9l17.5 17.5c.2.2.3.4.3.7s-.1.5-.3.7l-2.9 2.9c-.1.2-.4.3-.6.3zM20 5c.3 0 .5.1.7.3l15.4 15.4 1.5-1.5L20.8 2.3c-.4-.4-1.1-.4-1.5 0L2.4 19.1l1.5 1.5L19.3 5.2c.2-.1.4-.2.7-.2z"/></g><path fill="#979CA1" d="M18 38H7.5C6.1 38 5 36.9 5 35.5V20h2v15.5c0 .3.2.5.5.5H18v2z"/><path fill="#979CA1" d="M32.5 38H17v-2h15.5c.3 0 .5-.2.5-.5V20h2v15.5c0 1.4-1.1 2.5-2.5 2.5zM20 22c-2.2 0-4-1.8-4-4s1.8-4 4-4 4 1.8 4 4-1.8 4-4 4zm0-6c-1.1 0-2 .9-2 2s.9 2 2 2 2-.9 2-2-.9-2-2-2z"/></svg>