<svg version="1.1" xmlns="http://www.w3.org/2000/svg" x="0" y="0" viewBox="0 0 53 65" xml:space="preserve"><g><path fill="#FFF" d="M1 9h51v55H1z"/><path fill="#B4BEC5" d="M52 65H1c-.6 0-1-.4-1-1V9c0-.6.4-1 1-1h51c.6 0 1 .4 1 1v55c0 .6-.4 1-1 1zM2 63h49V10H2v53z"/></g><g><path fill="#FFF" d="M6 13h41v47H6z"/><path fill="#B4BEC5" d="M47 61H6c-.6 0-1-.4-1-1V13c0-.6.4-1 1-1h41c.6 0 1 .4 1 1v47c0 .6-.4 1-1 1zM7 59h39V14H7v45z"/></g><g><path fill="#FFF" d="M36.6 28.9l-3.3 3.3c-.6.6-1.5.6-2.1 0l-1.6-1.6c-.6-.6-.6-1.6 0-2.2l3.3-3.3c-.7-.3-1.5-.4-2.3-.4-3.3 0-6.2 2.6-6.5 5.9-.1.8 0 1.6.2 2.3.1.5 0 1.1-.4 1.5l-8.3 8.3c-1 1-1.1 2.7 0 3.7.5.4 1.1.7 1.7.7.6 0 1.3-.2 1.8-.7l8.4-8.4c.4-.4 1-.5 1.5-.4.7.2 1.5.3 2.3.2 3.3-.3 5.9-3.2 5.9-6.5-.2-.9-.4-1.7-.6-2.4z"/><path fill="#B4BEC5" d="M17.2 48c-.9 0-1.7-.3-2.4-.9-.7-.6-1.1-1.5-1.1-2.5s.4-2 1.1-2.7l8.3-8.3c.1-.1.2-.3.1-.5-.2-.8-.2-1.7-.2-2.6.4-3.8 3.6-6.8 7.5-6.8 1 0 1.8.2 2.7.5.3.1.5.4.6.7.1.3 0 .7-.3.9l-3.3 3.3c-.2.2-.2.5 0 .7l1.6 1.6c.1.1.3.1.4.1s.2 0 .4-.1l3.3-3.3c.2-.2.6-.3.9-.3.3.1.6.3.7.6.3.8.5 1.7.5 2.6 0 3.8-2.9 7.2-6.8 7.5h-.7c-.6 0-1.3-.1-1.9-.2-.2 0-.3-.1-.5.1L19.7 47c-.7.6-1.5 1-2.5 1zm13.4-22.3c-2.8 0-5.2 2.2-5.5 5-.1.7 0 1.3.2 1.9.2.9 0 1.8-.6 2.4l-8.3 8.3c-.3.3-.5.8-.5 1.2 0 .4.2.8.4 1 .6.5 1.5.5 2.1 0l8.4-8.4c.6-.6 1.6-.9 2.4-.6.6.2 1.3.2 1.9.2 2.8-.3 5-2.7 5-5.5v-.3l-2 2c-.9.9-2.6.9-3.5 0L29 31.3c-1-1-1-2.6 0-3.5l2-2c-.3-.1-.4-.1-.4-.1z"/></g><g><path fill="#FFF" d="M29.4 7c.5-.9.7-2 .4-3.2-.4-1.3-1.6-2.4-3-2.7C24.2.6 22 2.5 22 5c0 .7.2 1.4.6 2h-4.2c-1.4 0-2.6.9-2.9 2.3L14 15h24l-1.4-5.7C36.2 7.9 35 7 33.7 7h-4.3z"/><path fill="#B4BEC5" d="M38 16H14c-.3 0-.6-.1-.8-.4s-.2-.5-.2-.8L14.5 9c.4-1.8 2-3 3.9-3h2.8c-.2-.3-.2-.7-.2-1 0-2.8 2.2-5 5-5 .3 0 .7 0 1 .1 1.7.3 3.2 1.7 3.7 3.4.3.8.4 1.7.2 2.5h2.8c1.8 0 3.4 1.2 3.9 3l1.4 5.7c.1.3 0 .6-.2.9s-.5.4-.8.4zm-22.7-2h21.4l-1.1-4.5c-.2-.9-1-1.5-1.9-1.5h-4.2c-.4 0-.7-.2-.9-.5-.2-.3-.2-.7 0-1 .4-.8.5-1.6.3-2.4-.3-1-1.2-1.8-2.2-2-2-.4-3.7 1-3.7 2.9 0 .5.1 1 .4 1.5.2.3.2.7 0 1-.2.3-.5.5-.8.5h-4.2c-.9 0-1.7.6-1.9 1.5L15.3 14z"/></g></svg>