<svg version="1.1" xmlns="http://www.w3.org/2000/svg" x="0" y="0" viewBox="0 0 38 40" xml:space="preserve"><path fill="#979CA1" d="M4.1 40c-.5 0-.8-.3-1-.6-.1-.4-.1-.8.2-1.1 1.5-1.6 2.7-4.7 2.9-7.8-4-3.3-6.3-8-6.3-13C0 7.9 8.5 0 19 0s19 7.9 19 17.5C38 27.2 29.5 35 19 35c-1.1 0-2.2-.1-3.2-.2C13.4 38 8.9 40 4.1 40zM19 2C9.6 2 2 9 2 17.5c0 4.5 2.2 8.8 5.9 11.8.3.2.4.5.4.8-.2 2.8-1 5.7-2.2 7.8 3.6-.5 6.8-2.2 8.4-4.7.2-.3.6-.5 1-.4 1.2.2 2.3.3 3.5.3 9.4 0 17-7 17-15.5C36 9 28.4 2 19 2z"/><path fill="#8FCAA9" d="M19 25c-3.3 0-6-2.7-6-6 0-.6.4-1 1-1s1 .4 1 1c0 2.2 1.8 4 4 4s4-1.8 4-4c0-.6.4-1 1-1s1 .4 1 1c0 3.3-2.7 6-6 6zM16 15c-.6 0-1-.4-1-1 0-1.1-.7-2-1.5-2s-1.5.9-1.5 2c0 .6-.4 1-1 1s-1-.4-1-1c0-2.2 1.6-4 3.5-4s3.5 1.8 3.5 4c0 .6-.4 1-1 1zM27 15c-.6 0-1-.4-1-1 0-1.1-.7-2-1.5-2s-1.5.9-1.5 2c0 .6-.4 1-1 1s-1-.4-1-1c0-2.2 1.6-4 3.5-4s3.5 1.8 3.5 4c0 .6-.4 1-1 1z"/></svg>