<?xml version="1.0"?>
<svg width="101" height="102" xmlns="http://www.w3.org/2000/svg" xmlns:svg="http://www.w3.org/2000/svg">
 <title>collect rent</title>
 <desc>Created with Sketch.</desc>

 <g>
  <title>Layer 1</title>
  <g fill-rule="evenodd" fill="none" id="Page-1">
   <g id="collect-rent">
    <path fill="#fafafa" id="Fill-1" d="m50.404,0.527c27.767,0 50.277,22.51 50.277,50.277c0,27.767 -22.51,50.277 -50.277,50.277c-27.767,0 -50.277,-22.51 -50.277,-50.277c0,-27.767 22.51,-50.277 50.277,-50.277"/>
    <path fill="#b9bdc1" id="Fill-3" d="m72.159,53.664l-44.423,0c-1.05,0 -1.903,-0.854 -1.903,-1.904l0,-29.7c0,-1.05 0.853,-1.904 1.903,-1.904l44.425,0c1.05,0 1.903,0.854 1.903,1.904l0,29.7c-0.001,1.05 -0.855,1.904 -1.905,1.904l0,0zm-44.043,-2.283l43.661,0l0,-28.94l-43.661,0l0,28.94z"/>
    <path fill="#b9bdc1" id="Fill-4" d="m72.159,78.541l-44.423,0c-1.05,0 -1.903,-0.854 -1.903,-1.904l0,-19.799c0,-1.05 0.853,-1.904 1.903,-1.904l44.425,0c1.05,0 1.903,0.854 1.903,1.904l0,19.801c-0.001,1.048 -0.855,1.902 -1.905,1.902"/>
    <path fill="#4f5962" id="Fill-5" d="m40.39,62.652c0,0.303 -0.247,0.551 -0.551,0.551l-3.452,0c-0.304,0 -0.551,-0.248 -0.551,-0.551l0,-2.753c0,-0.304 0.247,-0.551 0.551,-0.551l3.452,0c0.304,0 0.551,0.247 0.551,0.551l0,2.753"/>
    <path fill="#4f5962" id="Fill-6" d="m46.427,62.652c0,0.303 -0.247,0.551 -0.551,0.551l-3.452,0c-0.304,0 -0.551,-0.248 -0.551,-0.551l0,-2.753c0,-0.304 0.247,-0.551 0.551,-0.551l3.452,0c0.304,0 0.551,0.247 0.551,0.551l0,2.753"/>
    <path fill="#4f5962" id="Fill-7" d="m52.464,62.652c0,0.303 -0.247,0.551 -0.551,0.551l-3.452,0c-0.304,0 -0.551,-0.248 -0.551,-0.551l0,-2.753c0,-0.304 0.247,-0.551 0.551,-0.551l3.452,0c0.304,0 0.551,0.247 0.551,0.551l0,2.753"/>
    <path fill="#4f5962" id="Fill-8" d="m58.216,62.67c0,0.295 -0.238,0.533 -0.532,0.533l-3.335,0c-0.295,0 -0.533,-0.238 -0.533,-0.533l0,-2.661c0,-0.294 0.238,-0.532 0.533,-0.532l3.335,0c0.294,0 0.532,0.238 0.532,0.532l0,2.661"/>
    <path fill="#4f5962" id="Fill-9" d="m64.053,62.67c0,0.295 -0.238,0.533 -0.532,0.533l-3.335,0c-0.295,0 -0.532,-0.238 -0.532,-0.533l0,-2.661c0,-0.294 0.237,-0.532 0.532,-0.532l3.335,0c0.294,0 0.532,0.238 0.532,0.532l0,2.661"/>
    <path fill="#4f5962" id="Fill-10" d="m69.953,62.67c0,0.295 -0.238,0.533 -0.532,0.533l-3.335,0c-0.295,0 -0.532,-0.238 -0.532,-0.533l0,-2.661c0,-0.294 0.237,-0.532 0.532,-0.532l3.335,0c0.294,0 0.532,0.238 0.532,0.532l0,2.661"/>
    <path fill="#4f5962" id="Fill-11" d="m40.39,67.919c0,0.303 -0.247,0.551 -0.551,0.551l-3.452,0c-0.304,0 -0.551,-0.248 -0.551,-0.551l0,-2.753c0,-0.304 0.247,-0.551 0.551,-0.551l3.452,0c0.304,0 0.551,0.247 0.551,0.551l0,2.753"/>
    <path fill="#4f5962" id="Fill-12" d="m34.417,62.652c0,0.303 -0.247,0.551 -0.551,0.551l-3.451,0c-0.304,0 -0.551,-0.248 -0.551,-0.551l0,-2.753c0,-0.304 0.247,-0.551 0.551,-0.551l3.451,0c0.304,0 0.551,0.247 0.551,0.551l0,2.753"/>
    <path fill="#4f5962" id="Fill-13" d="m69.914,73.461c0,0.295 -0.238,0.532 -0.533,0.532l-3.335,0c-0.294,0 -0.532,-0.237 -0.532,-0.532l0,-2.661c0,-0.294 0.238,-0.532 0.532,-0.532l3.335,0c0.295,0 0.533,0.238 0.533,0.532l0,2.661"/>
    <path fill="#4f5962" id="Fill-14" d="m34.417,73.442c0,0.304 -0.247,0.551 -0.551,0.551l-3.451,0c-0.304,0 -0.551,-0.247 -0.551,-0.551l0,-2.752c0,-0.304 0.247,-0.551 0.551,-0.551l3.451,0c0.304,0 0.551,0.247 0.551,0.551l0,2.752"/>
    <path fill="#4f5962" id="Fill-15" d="m34.417,67.919c0,0.303 -0.247,0.551 -0.551,0.551l-3.451,0c-0.304,0 -0.551,-0.248 -0.551,-0.551l0,-2.753c0,-0.304 0.247,-0.551 0.551,-0.551l3.451,0c0.304,0 0.551,0.247 0.551,0.551l0,2.753"/>
    <path fill="#4f5962" id="Fill-16" d="m46.427,67.919c0,0.303 -0.247,0.551 -0.551,0.551l-3.452,0c-0.304,0 -0.551,-0.248 -0.551,-0.551l0,-2.753c0,-0.304 0.247,-0.551 0.551,-0.551l3.452,0c0.304,0 0.551,0.247 0.551,0.551l0,2.753"/>
    <path fill="#4f5962" id="Fill-17" d="m52.464,67.919c0,0.303 -0.247,0.551 -0.551,0.551l-3.452,0c-0.304,0 -0.551,-0.248 -0.551,-0.551l0,-2.753c0,-0.304 0.247,-0.551 0.551,-0.551l3.452,0c0.304,0 0.551,0.247 0.551,0.551l0,2.753"/>
    <path fill="#4f5962" id="Fill-18" d="m58.216,67.936c0,0.294 -0.238,0.532 -0.532,0.532l-3.335,0c-0.295,0 -0.533,-0.238 -0.533,-0.532l0,-2.661c0,-0.295 0.238,-0.532 0.533,-0.532l3.335,0c0.294,0 0.532,0.237 0.532,0.532l0,2.661"/>
    <path fill="#4f5962" id="Fill-19" d="m69.887,67.936c0,0.294 -0.238,0.532 -0.532,0.532l-9.125,0c-0.295,0 -0.532,-0.238 -0.532,-0.532l0,-2.661c0,-0.295 0.237,-0.532 0.532,-0.532l9.125,0c0.294,0 0.532,0.237 0.532,0.532l0,2.661"/>
    <path fill="#4f5962" id="Fill-20" d="m64.384,73.442c0,0.304 -0.248,0.551 -0.551,0.551l-27.482,0c-0.304,0 -0.551,-0.247 -0.551,-0.551l0,-2.752c0,-0.304 0.247,-0.551 0.551,-0.551l27.482,0c0.303,0 0.551,0.247 0.551,0.551l0,2.752"/>
    <path fill="#161616" id="Fill-21" d="m27.957,22.354l44.169,0l0,29.191l-44.169,0l0,-29.191z"/>
    <path fill="#3dc198" id="Fill-22" d="m50.702,28.563c4.588,0 8.308,3.72 8.308,8.308c0,4.588 -3.72,8.307 -8.308,8.307c-4.588,0 -8.308,-3.719 -8.308,-8.307c0,-4.588 3.72,-8.308 8.308,-8.308"/>
    <path fill="#DD4727" id="Fill-24" d="m87.167,45.111c3.835,0 6.945,3.109 6.945,6.945c0,3.836 -3.11,6.946 -6.945,6.946c-3.836,0 -6.946,-3.11 -6.946,-6.946c0,-3.836 3.11,-6.945 6.946,-6.945"/>
    <path fill="#f15d40" id="Fill-25" d="m87.167,43.446c4.057,0 7.347,3.29 7.347,7.347c0,4.058 -3.29,7.347 -7.347,7.347c-4.058,0 -7.348,-3.289 -7.348,-7.347c0,-4.057 3.29,-7.347 7.348,-7.347"/>
    <path fill="#DD4727" id="Fill-26" d="m87.167,41.78c4.279,0 7.748,3.469 7.748,7.749c0,4.279 -3.469,7.749 -7.748,7.749c-4.28,0 -7.749,-3.47 -7.749,-7.749c0,-4.28 3.469,-7.749 7.749,-7.749"/>
    <path fill="#31251B" id="Fill-27" d="m87.167,43.334c3.421,0 6.194,2.774 6.194,6.195c0,3.421 -2.773,6.194 -6.194,6.194c-3.422,0 -6.195,-2.773 -6.195,-6.194c0,-3.421 2.773,-6.195 6.195,-6.195"/>
    <path fill="#DD4727" id="Fill-28" d="m94.468,59.605c-0.233,0.233 -0.717,0.127 -1.08,-0.238l-2.057,-2.057c-0.363,-0.363 -0.47,-0.847 -0.237,-1.08l1.135,-1.135c0.233,-0.233 0.716,-0.128 1.08,0.238l2.056,2.056c0.364,0.364 0.471,0.847 0.238,1.081l-1.135,1.135"/>
    <path fill="#FFFFFF" id="Fill-29" d="m53.453,37.611c-0.095,-0.229 -0.224,-0.416 -0.384,-0.564c-0.163,-0.148 -0.348,-0.277 -0.559,-0.392c-0.212,-0.112 -0.432,-0.203 -0.663,-0.274c-0.232,-0.071 -0.463,-0.137 -0.692,-0.195c-0.228,-0.059 -0.448,-0.12 -0.661,-0.18c-0.211,-0.06 -0.397,-0.123 -0.559,-0.192c-0.162,-0.069 -0.288,-0.157 -0.384,-0.264c-0.095,-0.107 -0.143,-0.235 -0.143,-0.38c0,-0.264 0.11,-0.48 0.332,-0.647c0.222,-0.167 0.513,-0.25 0.88,-0.25c0.391,0 0.765,0.069 1.131,0.209c0.362,0.14 0.683,0.348 0.962,0.627l0.711,-0.939c-0.552,-0.537 -1.239,-0.856 -2.058,-0.963l0,-1.583l-1.225,0l0,1.586c-0.51,0.078 -0.943,0.261 -1.297,0.554c-0.485,0.401 -0.728,0.904 -0.728,1.508c0,0.282 0.049,0.534 0.144,0.756c0.094,0.222 0.223,0.405 0.384,0.548c0.161,0.143 0.348,0.266 0.559,0.372c0.211,0.105 0.43,0.192 0.661,0.261c0.23,0.069 0.461,0.132 0.691,0.191c0.232,0.06 0.452,0.116 0.663,0.176c0.211,0.06 0.397,0.129 0.559,0.203c0.161,0.076 0.289,0.173 0.385,0.295c0.096,0.121 0.143,0.259 0.143,0.423c0,0.274 -0.118,0.51 -0.354,0.707c-0.238,0.196 -0.596,0.295 -1.077,0.295c-0.468,0 -0.896,-0.095 -1.284,-0.285c-0.39,-0.191 -0.719,-0.432 -0.99,-0.725l-0.717,0.984c0.599,0.613 1.353,0.974 2.262,1.092l0,1.473l1.22,0l0,-1.459c0.167,-0.019 0.326,-0.049 0.477,-0.087c0.312,-0.079 0.573,-0.186 0.786,-0.323c0.214,-0.137 0.395,-0.3 0.543,-0.488c0.148,-0.189 0.255,-0.392 0.324,-0.609c0.07,-0.217 0.103,-0.446 0.103,-0.688c-0.004,-0.288 -0.051,-0.547 -0.145,-0.773"/>
    <path fill="#E7C4DC" id="Fill-30" d="m13.307,44.737l-4.31,1.443l-1.022,-3.057c-0.115,-0.346 0.071,-0.721 0.417,-0.836l3.057,-1.022c0.346,-0.115 0.721,0.071 0.836,0.418l1.022,3.054"/>
    <path fill="#FFCC07" id="Fill-31" d="m8.958,46.021l4.293,-1.436l5.216,15.583l-4.293,1.436l-5.216,-15.583"/>
    <path fill="#F9A233" id="Fill-32" d="m8.959,46.023l1.034,-0.346l5.215,15.583l-1.033,0.345l-5.216,-15.582"/>
    <path fill="#FFE061" id="Fill-33" d="m12.193,44.939l1.034,-0.346l5.215,15.583l-1.033,0.346l-5.216,-15.583"/>
    <path fill="#DEDDD3" id="Fill-34" d="m14.176,61.603l3.607,3.755l0.662,-5.183l-4.269,1.428"/>
    <path fill="#161616" id="Fill-35" d="m16.198,63.648l1.576,1.641l0.288,-2.266l-1.864,0.625"/>
    <path fill="#564337" id="Fill-36" d="m87.233,44.477c2.016,0 3.651,0.973 3.651,2.172c0,1.199 -1.635,2.171 -3.651,2.171c-2.017,0 -3.652,-0.972 -3.652,-2.171c0,-1.199 1.635,-2.172 3.652,-2.172"/>
   </g>
  </g>
 </g>
</svg>