<svg version="1.1" xmlns="http://www.w3.org/2000/svg" x="0" y="0" viewBox="0 0 35.5 40" xml:space="preserve"><path fill="#999DA3" d="M19.4 11c-.3 0-.6-.1-.8-.4-.3-.4-.2-1.1.2-1.4 2.8-2 3.5-5.5 3.7-7.2h-9.8c.2 1.7 1 5.2 3.7 7.2.4.3.5.9.2 1.4-.3.4-.9.5-1.4.2-4.6-3.3-4.7-9.5-4.7-9.8 0-.6.4-1 1-1h12c.6 0 1 .4 1 1 0 .3-.1 6.5-4.7 9.8 0 .1-.2.2-.4.2z"/><path fill="#999DA3" d="M13.3 11c-.2 0-.3 0-.5-.1C7.6 8 6.4 3.3 6.3 3.1c-.1-.5.2-1.1.8-1.2.5-.1 1.1.2 1.2.7 0 .2 1.1 4.1 5.5 6.5.5.3.7.9.4 1.4-.2.3-.5.5-.9.5z"/><path fill="#999DA3" d="M10.8 10.4c-3.6 0-5.9-1.8-6-1.9-.4-.3-.5-1-.1-1.4.3-.4.9-.5 1.3-.1.1.1 3.1 2.4 7.7 1 .5-.2 1.1.1 1.3.7.2.5-.1 1.1-.7 1.3-1.2.3-2.4.4-3.5.4z"/><path fill="#70B39F" d="M17.6 31c-2.2 0-4-1.6-4-3.5 0-.6.4-1 1-1s1 .4 1 1c0 .8.9 1.5 2 1.5s2-.7 2-1.5-.9-1.5-2-1.5c-2.2 0-4-1.6-4-3.5s1.8-3.5 4-3.5 4 1.6 4 3.5c0 .6-.4 1-1 1s-1-.4-1-1c0-.8-.9-1.5-2-1.5s-2 .7-2 1.5.9 1.5 2 1.5c2.2 0 4 1.6 4 3.5s-1.8 3.5-4 3.5z"/><path fill="#70B39F" d="M17.6 20c-.6 0-1-.4-1-1v-1c0-.6.4-1 1-1s1 .4 1 1v1c0 .6-.4 1-1 1zM17.6 33c-.6 0-1-.4-1-1v-2c0-.6.4-1 1-1s1 .4 1 1v2c0 .6-.4 1-1 1z"/><path fill="#999DA3" d="M6.6 32c-.1 0-.3 0-.4-.1-2.6-1.1-4.6-2.2-4.6-5.9 0-8.2 5-17 16-17 .6 0 1 .4 1 1s-.4 1-1 1c-9.7 0-14 7.5-14 15 0 2.4 1 3.1 3.4 4.1.5.2.7.8.5 1.3-.1.4-.5.6-.9.6z"/><path fill="#999DA3" d="M29 32c-.4 0-.8-.2-.9-.6-.2-.5 0-1.1.5-1.3 2.4-1 3.4-1.7 3.4-4.1 0-7.5-4.3-15-14-15-.6 0-1-.4-1-1s.4-1 1-1c11 0 16 8.8 16 17 0 3.7-2 4.8-4.6 5.9-.1.1-.3.1-.4.1z"/><path fill="#999DA3" d="M9.4 40c-2.2 0-6.8-.4-8.7-3.5-2-3.5.6-6.9 2.2-8.3l1.3 1.5c-.1.1-3.4 2.9-1.8 5.7 1.5 2.5 6.3 2.7 8 2.5L25 38c1.8.2 6.6 0 8-2.5 1.7-2.8-1.7-5.6-1.9-5.7l1.3-1.6c1.7 1.4 4.4 4.8 2.3 8.3-2.4 4.1-9.6 3.5-9.9 3.5H10.5 9.4z"/></svg>