<?xml version="1.0"?>
<svg width="100" height="101" xmlns="http://www.w3.org/2000/svg" xmlns:svg="http://www.w3.org/2000/svg">
 <title>screening tools</title>
 <desc>Created with Sketch.</desc>

 <g>
  <title>Layer 1</title>
  <g fill-rule="evenodd" fill="none" id="Page-1">
   <g id="screening-tools">
    <path fill="#fafafa" id="Fill-1" d="m50.15,0.527c27.531,0 49.85,22.319 49.85,49.85c0,27.531 -22.319,49.85 -49.85,49.85c-27.531,0 -49.85,-22.319 -49.85,-49.85c0,-27.531 22.319,-49.85 49.85,-49.85"/>
    <path fill="#3dc198" id="Fill-3" d="m67.839,24.638c1.111,0 2.012,0.901 2.012,2.012l0,45.521c0,1.111 -0.901,2.012 -2.012,2.012l-34.718,0c-1.111,0 -2.012,-0.901 -2.012,-2.012l0,-45.519c0,-1.111 0.901,-2.012 2.012,-2.012l34.718,-0.002m0,-4.025l-34.718,0c-3.33,0 -6.037,2.709 -6.037,6.037l0,45.521c0,3.33 2.709,6.038 6.037,6.038l34.718,0c3.331,0 6.038,-2.709 6.038,-6.038l0,-45.519c0,-3.33 -2.709,-6.039 -6.038,-6.039"/>
    <path fill="#FFFFFF" id="Fill-4" d="m69.851,72.296c0,1.111 -0.901,2.012 -2.012,2.012l-34.842,0c-1.112,0 -2.012,-0.901 -2.012,-2.012l0,-45.644c0,-1.111 0.9,-2.012 2.012,-2.012l34.841,0c1.111,0 2.012,0.901 2.012,2.012l0.001,45.644"/>
    <path fill="#b9bdc1" id="Fill-5" d="m38.097,54.504l24.751,0l0,2.075l-24.751,0l0,-2.075z"/>
    <path fill="#b9bdc1" id="Fill-6" d="m38.097,59.965l24.751,0l0,2.075l-24.751,0l0,-2.075z"/>
    <path fill="#b9bdc1" id="Fill-7" d="m38.097,65.264l21.103,0l0,2.075l-21.103,0l0,-2.075z"/>
    <path fill="#4f5962" id="Fill-8" d="m59.412,49.323l-18.554,0l0.925,-6.074c0.082,-0.65 0.594,-1.135 1.201,-1.135l3.265,-0.602c1.123,1.241 2.544,2.01 3.838,2.01c1.297,0 2.723,-0.773 3.845,-2.018l3.354,0.61c0.607,0 1.119,0.485 1.201,1.135l0.925,6.074"/>
    <path fill="#4f5962" id="Fill-9" d="m50.085,41.812c-1.634,0 -4.153,-2.347 -4.153,-5.465c0,-2.826 1.669,-4.724 4.153,-4.724c2.485,0 4.154,1.898 4.154,4.724c0,3.118 -2.519,5.465 -4.154,5.465"/>
    <path fill="#FFFFFF" id="Fill-10" d="m64.424,57.992c5.703,0 10.327,4.624 10.327,10.327c0,5.704 -4.624,10.328 -10.327,10.328c-5.704,0 -10.327,-4.624 -10.327,-10.328c0,-5.703 4.623,-10.327 10.327,-10.327"/>
    <path fill="#bdbdc1" id="Fill-11" d="m55.252,69.886l11.313,0l0,3.488l-11.313,0l0,-3.488z"/>
    <path fill="#b9bdc1" id="Fill-12" d="m55.252,62.914l11.313,0l0,3.488l-11.313,0l0,-3.488z"/>
    <path fill="#4f5962" id="Fill-13" d="m80.983,81.858l-7.038,-7.038c-0.115,-0.115 -0.24,-0.213 -0.37,-0.303c1.092,-1.731 1.736,-3.773 1.736,-5.965c0,-6.185 -5.033,-11.217 -11.217,-11.217c-6.185,0 -11.218,5.032 -11.218,11.217c0,6.184 5.033,11.217 11.218,11.217c2.193,0 4.234,-0.642 5.965,-1.736c0.088,0.13 0.187,0.256 0.303,0.37l7.036,7.041c0.495,0.495 1.145,0.743 1.793,0.743c0.648,0 1.297,-0.248 1.792,-0.743c0.991,-0.991 0.991,-2.595 0,-3.586l0,0zm-25.573,-13.306c0,-4.788 3.894,-8.682 8.682,-8.682c4.787,0 8.682,3.894 8.682,8.682c0,4.787 -3.895,8.681 -8.682,8.681c-4.788,0 -8.682,-3.894 -8.682,-8.681l0,0z"/>
   </g>
  </g>
 </g>
</svg>