<?xml version="1.0" encoding="UTF-8" standalone="no"?>
<svg width="250px" height="241px" viewBox="0 0 250 241" version="1.1" xmlns="http://www.w3.org/2000/svg" xmlns:xlink="http://www.w3.org/1999/xlink" xmlns:sketch="http://www.bohemiancoding.com/sketch/ns">
    <!-- Generator: Sketch 3.1.1 (8761) - http://www.bohemiancoding.com/sketch -->
    <title>Vector 11</title>
    <desc>Created with Sketch.</desc>
    <defs></defs>
    <g id="Page-1" stroke="none" stroke-width="1" fill="none" fill-rule="evenodd" sketch:type="MSPage">
        <circle id="Oval-1" fill="#FAFAFA" sketch:type="MSShapeGroup" cx="126.5" cy="122.5" r="114.5"></circle>
        <circle id="Oval-1" fill="#FAFAFA" sketch:type="MSShapeGroup" cx="131.5" cy="118.5" r="114.5"></circle>
        <g id="hammer" sketch:type="MSLayerGroup" transform="translate(69.000000, 54.000000)">
            <g id="g3057" transform="translate(0.150000, 0.000000)" fill="#DD4727" sketch:type="MSShapeGroup">
                <path d="M70.699,37.8 L85.098,52.6 L20.7,123.799 C17.9,126.799 12.9,126.799 9.9,123.799 L2.1,115.799 C-0.9,112.999 -0.9,107.999 2.1,104.999 L70.699,37.8 L70.699,37.8 Z M131.099,53 L120.299,64 C118.099,66.2 114.698,66.2 112.299,64 L109.899,61.4 C108.099,59.8 107.299,56.8 108.299,55.4 C110.099,54.2 109.499,50.6 106.099,47.4 C101.299,42.4 95.099,42.2 92.7,44.8 C91.7,45.6 88.5,49 88.5,49 L73.7,34.4 L76.1,32 C76.1,32 76.7,31.4 77.9,30 C82.5,25.4 77.7,20.2 77.7,20.2 C64.7,7.4 46.501,7.6 46.501,7.6 L46.301,3 C82.901,-6.4 96.7,9.6 101.7,14.6 L112.3,25.2 C114.9,27.8 112.3,35.2 116.1,39.4 C117.9,41.2 120.3,42 122.1,42 C124.1,40.2 127.3,40.8 128.9,42.6 L131.1,45 C133.299,47.2 133.299,50.6 131.099,53 L131.099,53 Z" id="path3059"></path>
            </g>
            <path d="M131.798,53.6386214 L120.998,64.8224289 C118.798,67.0591904 115.397,67.0591904 112.998,64.8224289 L110.598,62.1789835 C108.798,60.5522478 107.998,57.5021185 108.998,56.0787249 C110.798,54.8586731 110.198,51.198518 106.798,47.9450467 C101.998,42.8614978 95.798,42.6581559 93.399,45.3016013 C92.399,46.1149691 89.199,49.5717823 89.199,49.5717823 L74.399,34.7278197 L76.799,32.2877162 C76.799,32.2877162 77.399,31.6776904 78.599,30.2542967 C83.199,25.5774317 78.399,20.2905409 78.399,20.2905409 C65.399,7.27665587 47.2,7.47999782 47.2,7.47999782 L47,2.80313288 C83.6,-6.75393896 97.399,9.51341736 102.399,14.5969662 C106.999,19.2738312 111.798,24.1530213 112.999,25.3740898 C115.599,28.0175352 112.999,35.5411875 116.799,39.8113685 C118.599,41.6414461 120.999,42.4548139 122.799,42.4548139 C124.799,40.6247363 127.999,41.2347622 129.599,43.0648398 L131.799,45.5049432 C133.998,47.7417047 133.998,51.198518 131.798,53.6386214 L131.798,53.6386214 Z" id="path3065-path-2" fill="#4F5962" sketch:type="MSShapeGroup"></path>
        </g>
        <g id="wrench" sketch:type="MSLayerGroup" transform="translate(-394.500000, 285.500000) rotate(-90.000000) translate(394.500000, -285.500000) translate(-615.500000, -287.000000)" fill="#B9BDC1">
            <g transform="translate(322.000000, 1025.000000)" id="Shape" sketch:type="MSShapeGroup">
                <path d="M103.202232,30.3941964 L91.3473214,42.2910714 L79.7861607,40.1928571 L77.7089286,28.6316964 L89.5638393,16.7348214 C86.8991071,14.0700893 83.1013393,12.853125 80.2897321,13 C77.4571429,13.146875 71.4142857,14.7415179 66.7352679,19.7142857 C62.203125,24.4982143 57.4401786,33.415625 61.6575893,43.3191964 C62.1611607,44.5151786 62.7276786,46.0888393 61.0491071,47.7674107 C59.3495536,49.4459821 15.9375,90.3191964 15.9375,90.3191964 C11.8669643,93.8232143 12.1607143,100.306696 15.9165179,104.083482 C19.7352679,107.839286 26.1767857,108.070089 29.6808036,104.020536 C29.6808036,104.020536 70.2183036,60.8392857 72.2116071,58.8879464 C73.9950893,57.1464286 75.5897321,57.7339286 76.6598214,58.2794643 C84.1294643,62.1401786 94.7674107,58.7830357 100.285714,53.2647321 C105.804018,47.7464286 106.811161,42.4169643 106.979018,39.6892857 C107.146875,36.9825893 106.202679,33.3946429 103.202232,30.3941964 L103.202232,30.3941964 Z M25.4424107,99.2785714 C24.1205357,100.579464 21.9803571,100.579464 20.6794643,99.2785714 C19.3785714,97.9566964 19.3785714,95.8165179 20.6794643,94.515625 C22.0013393,93.2147321 24.1415179,93.2147321 25.4424107,94.515625 C26.7433036,95.8375 26.7433036,97.9776786 25.4424107,99.2785714 L25.4424107,99.2785714 Z" transform="translate(59.994437, 59.983753) rotate(-340.000000) translate(-59.994437, -59.983753) "></path>
            </g>
        </g>
    </g>
</svg>